<?xml version="1.0" standalone="no"?>
<!DOCTYPE svg PUBLIC "-//W3C//DTD SVG 20010904//EN"
 "http://www.w3.org/TR/2001/REC-SVG-20010904/DTD/svg10.dtd">
<svg version="1.0" xmlns="http://www.w3.org/2000/svg"
 width="969.000000pt" height="969.000000pt" viewBox="0 0 969.000000 969.000000"
 preserveAspectRatio="xMidYMid meet">
<metadata>
Created by potrace 1.11, written by Peter Selinger 2001-2013
</metadata>
<g transform="translate(0.000000,969.000000) scale(0.100000,-0.100000)"
fill="#000000" stroke="none">
<path d="M0 4845 l0 -4845 4845 0 4845 0 0 4845 0 4845 -4845 0 -4845 0 0
-4845z m9680 0 l0 -4835 -4835 0 -4835 0 0 4835 0 4835 4835 0 4835 0 0 -4835z"/>
<path d="M5738 9625 c-2 -1 -50 -6 -108 -9 -103 -7 -134 -10 -215 -21 -22 -3
-58 -8 -80 -11 -147 -20 -394 -81 -552 -135 -765 -264 -1360 -814 -1649 -1524
l-32 -80 -56 -3 -56 -3 0 829 c0 655 -3 831 -12 834 -7 2 -569 4 -1248 4
l-1235 -1 -2 -4723 -1 -4722 1309 0 1309 0 1 2763 c0 1519 2 2791 4 2827 5 83
14 188 20 220 2 14 6 43 9 65 38 307 187 668 374 905 61 77 213 224 292 282
253 186 562 295 915 323 59 5 280 5 345 1 66 -5 163 -16 180 -21 8 -2 31 -6
50 -9 59 -9 218 -55 288 -82 353 -140 625 -394 792 -739 88 -180 144 -363 166
-540 3 -22 7 -51 10 -64 5 -23 13 -109 19 -206 2 -27 3 -1327 4 -2887 l1
-2838 1309 0 1309 0 -3 3173 c-2 1744 -5 3190 -8 3212 -2 22 -8 78 -11 125 -7
84 -9 98 -20 175 -4 22 -8 56 -10 75 -3 19 -7 49 -10 65 -3 17 -7 44 -10 60
-3 17 -10 55 -16 85 -6 30 -13 66 -16 80 -3 14 -7 33 -10 42 -3 9 -7 26 -9 37
-22 116 -117 408 -182 560 -225 528 -552 956 -969 1269 -90 68 -248 172 -260
172 -4 0 -15 6 -23 14 -25 22 -286 150 -391 191 -216 85 -502 160 -715 190
-22 3 -51 7 -65 10 -14 2 -56 7 -95 11 -38 3 -83 8 -100 10 -34 5 -532 13
-537 9z"/>
</g>
</svg>
